# xmcd
#
# Track frame offsets:
#	150
#	16348
#	37188
#
# Disc length: 705 seconds
#
# Revision: 1
# Processed by: cddbd v1.5.1PL2 Copyright (c) Steve Scherf et al.
# Submitted via: EasyCDDAExtractor 8.2.3.1
#
DISCID=1e02bf03
DTITLE=Waltari - Not  Enough CDS
DYEAR=2005
DGENRE=CrossoverMetal
TTITLE0=Not Enough
TTITLE1=More
TTITLE2=Upside Down Man
EXTD=YEAR: 1996\n
EXTT0=
EXTT1=
EXTT2=
PLAYORDER=
